<?xml version="1.0" encoding="utf-8"?>
<!-- Generator: Adobe Illustrator 25.1.0, SVG Export Plug-In . SVG Version: 6.00 Build 0)  -->
<svg version="1.1" id="Calque_1" xmlns="http://www.w3.org/2000/svg" xmlns:xlink="http://www.w3.org/1999/xlink" x="0px" y="0px"
	 viewBox="0 0 85 85" style="enable-background:new 0 0 85 85;" xml:space="preserve">
<style type="text/css">
	.st0{fill:#114C81;}
</style>
<path class="st0" d="M68,22.7H17.2c-1.6,0-2.8-1.3-2.8-2.8v-4.2c0-1.6,1.3-2.8,2.8-2.8H68c1.6,0,2.8,1.3,2.8,2.8v4.2
	C70.8,21.4,69.6,22.7,68,22.7z"/>
<path class="st0" d="M67.8,34.9H17c-1.6,0-2.8-1.3-2.8-2.8v-4.2c0-1.6,1.3-2.8,2.8-2.8h50.8c1.6,0,2.8,1.3,2.8,2.8V32
	C70.7,33.6,69.4,34.9,67.8,34.9z"/>
<path class="st0" d="M68,46.9H17.2c-1.6,0-2.8-1.3-2.8-2.8v-4.2c0-1.6,1.3-2.8,2.8-2.8H68c1.6,0,2.8,1.3,2.8,2.8v4.2
	C70.8,45.7,69.6,46.9,68,46.9z"/>
</svg>
